<svg xmlns="http://www.w3.org/2000/svg" width="19.013" height="22.816" viewBox="0 0 19.013 22.816"><defs><style>.a{fill:#fff;}</style></defs><g transform="translate(-42.675)"><g transform="translate(42.675)"><path class="a" d="M61.62,19.244l-1.632-2.721a8.082,8.082,0,0,1-1.152-4.158V9.982a6.663,6.663,0,0,0-4.753-6.374V1.9a1.9,1.9,0,0,0-3.8,0V3.608a6.663,6.663,0,0,0-4.753,6.374v2.383a8.087,8.087,0,0,1-1.151,4.157l-1.632,2.721a.476.476,0,0,0,.407.721H61.213a.475.475,0,0,0,.408-.72Z" transform="translate(-42.675)"/></g><g transform="translate(49.188 20.915)"><path class="a" d="M188.815,469.333a3.307,3.307,0,0,0,5.987,0Z" transform="translate(-188.815 -469.333)"/></g></g></svg>